<svg width="900px" height="auto" viewBox="0 0 288 120" xmlns="http://www.w3.org/2000/svg"><g class="prefix__graph" transform="translate(4 116)"><path fill="#fff" stroke="transparent" d="M-4 4v-120h288V4z"/><g class="prefix__node"><circle fill="none" stroke="#000" cx="18" cy="-41" r="18"/><text text-anchor="middle" x="18" y="-36.8" font-size="14">a</text></g><g class="prefix__node"><circle fill="none" stroke="#000" cx="97" cy="-94" r="18"/><text text-anchor="middle" x="97" y="-89.8" font-size="14">b</text></g><g class="prefix__edge"><path fill="none" stroke="#000" d="M33.23-51.22c14-9.38 34.61-23.22 48.58-32.6"/><text text-anchor="middle" x="57.5" y="-73.2" font-size="14">1</text></g><g class="prefix__node"><circle fill="none" stroke="#000" cx="183" cy="-41" r="18"/><text text-anchor="middle" x="183" y="-36.8" font-size="14">c</text></g><g class="prefix__edge"><path fill="none" stroke="#000" d="M36.29-41h128.6"/><text text-anchor="middle" x="97" y="-45.2" font-size="14">2</text></g><g class="prefix__node"><circle fill="none" stroke="#000" cx="262" cy="-18" r="18"/><text text-anchor="middle" x="262" y="-13.8" font-size="14">d</text></g><g class="prefix__edge"><path fill="none" stroke="#000" d="M35.5-36.72C62.92-30.25 117.72-18.3 165-14c15.93 1.45 20 .52 36 0a1045 1045 0 0 0 42.87-2.5"/><text text-anchor="middle" x="140" y="-22.2" font-size="14">3</text></g><g class="prefix__edge"><path fill="none" stroke="#000" d="m112.38-84.52 55.09 33.95"/><text text-anchor="middle" x="140" y="-74.2" font-size="14">2</text></g><g class="prefix__edge"><path fill="none" stroke="#000" d="M115.27-94.4c9.56.17 21.4.97 31.73 3.4 38.11 8.98 48.14 14.9 79 39 8.13 6.35 16.55 14.22 23.2 20.78"/><text text-anchor="middle" x="183" y="-90.2" font-size="14">1</text></g><g class="prefix__edge"><path fill="none" stroke="#000" d="m200.53-35.9 43.99 12.81"/><text text-anchor="middle" x="222.5" y="-35.2" font-size="14">5</text></g></g></svg>
